<svg xmlns="http://www.w3.org/2000/svg" width="844" height="440" viewBox="0 0 844 440" fill="none">
  <rect width="844" height="440" rx="24" fill="#0b1220"/>
  <rect x="16" y="16" width="812" height="408" rx="18" fill="#0f1418" fill-opacity="0.35"/>
  <rect x="16" y="16" width="812" height="44" rx="18" fill="#0b0f14"/>
  <rect x="16" y="42" width="812" height="18" fill="#0b0f14"/>
  <circle cx="40" cy="38" r="6" fill="#ff5f57"/>
  <circle cx="60" cy="38" r="6" fill="#febc2e"/>
  <circle cx="80" cy="38" r="6" fill="#28c840"/>
  <rect x="108" y="28" width="520" height="20" rx="10" fill="#1c242c"/>
  <text x="368" y="42" text-anchor="middle" fill="#9aa7b0" font-size="11" font-family="Vazirmatn,Tahoma,sans-serif">tfec.ir</text>
  
        <rect x="36" y="78" width="180" height="248" rx="12" fill="#152034"/>
        <rect x="52" y="96" width="100" height="10" rx="5" fill="#3ee0b0"/>
        <rect x="52" y="124" width="148" height="8" rx="4" fill="#fff" fill-opacity="0.22"/>
        <rect x="52" y="144" width="120" height="8" rx="4" fill="#fff" fill-opacity="0.15"/>
        <rect x="52" y="164" width="132" height="8" rx="4" fill="#fff" fill-opacity="0.15"/>
        <rect x="52" y="196" width="148" height="36" rx="8" fill="#3ee0b0" fill-opacity="0.85"/>
        <rect x="228" y="78" width="272" height="116" rx="12" fill="#152034"/>
        <rect x="244" y="96" width="80" height="8" rx="4" fill="#fff" fill-opacity="0.3"/>
        <text x="244" y="140" fill="#3ee0b0" font-size="28" font-family="Vazirmatn,Tahoma,sans-serif" font-weight="700">۲۴.۸</text>
        <rect x="512" y="78" width="296" height="116" rx="12" fill="#152034"/>
        <path d="M532 168 L572 148 L612 156 L652 128 L692 140 L732 118 L772 132" fill="none" stroke="#3ee0b0" stroke-width="3" stroke-linecap="round"/>
        <rect x="228" y="208" width="272" height="118" rx="12" fill="#152034"/>
        <rect x="244" y="228" width="160" height="8" rx="4" fill="#fff" fill-opacity="0.25"/>
        <rect x="244" y="252" width="220" height="8" rx="4" fill="#3ee0b0" fill-opacity="0.35"/>
        <rect x="244" y="276" width="180" height="8" rx="4" fill="#fff" fill-opacity="0.15"/>
        <rect x="512" y="208" width="296" height="118" rx="12" fill="#152034"/>
        <rect x="532" y="228" width="70" height="70" rx="12" fill="#3ee0b0" fill-opacity="0.25"/>
        <rect x="616" y="228" width="70" height="70" rx="12" fill="#3ee0b0" fill-opacity="0.4"/>
        <rect x="700" y="228" width="70" height="70" rx="12" fill="#3ee0b0" fill-opacity="0.55"/>
        
  <text x="36" y="390" fill="#fff" font-size="22" font-weight="800" font-family="Vazirmatn,Tahoma,sans-serif">TFEC</text>
  <rect x="36" y="348" width="61" height="22" rx="11" fill="#3ee0b0" fill-opacity="0.18"/><text x="66.6" y="363" text-anchor="middle" fill="#3ee0b0" font-size="10" font-family="Vazirmatn,Tahoma,sans-serif">رمزارز</text><rect x="105.2" y="348" width="54" height="22" rx="11" fill="#3ee0b0" fill-opacity="0.18"/><text x="132.2" y="363" text-anchor="middle" fill="#3ee0b0" font-size="10" font-family="Vazirmatn,Tahoma,sans-serif">صرافی</text>
</svg>