<svg xmlns="http://www.w3.org/2000/svg" width="844" height="440" viewBox="0 0 844 440" fill="none" shape-rendering="crispEdges">
<rect width="844" height="440" rx="18" fill="#17252B"/>
<!-- floating pixels -->
<rect x="28" y="36" width="8" height="8" fill="#F7F2E8"/>
<rect x="40" y="28" width="12" height="8" fill="#F7F2E8"/>
<rect x="808" y="48" width="12" height="8" fill="#F7F2E8"/>
<rect x="796" y="56" width="8" height="8" fill="#F7F2E8"/>
<!-- CRT bezel like hero monitor -->
<rect x="40" y="28" width="764" height="384" rx="12" fill="#E6D7B8"/>
<rect x="40" y="28" width="764" height="384" rx="12" fill="none" stroke="#C4B28A" stroke-width="3"/>
<rect x="48" y="36" width="748" height="20" fill="#F3E9D2"/>
<rect x="60" y="42" width="8" height="8" fill="#E24A3A"/>
<rect x="76" y="42" width="8" height="8" fill="#FFB818"/>
<rect x="92" y="42" width="8" height="8" fill="#3DCC6A"/>
<rect x="292" y="40" width="260" height="12" rx="2" fill="#C4B28A"/>
<!-- screen -->
<rect x="56" y="60" width="732" height="320" fill="#121A28"/>

<rect x="56" y="60" width="732" height="320" fill="#FFFFFF"/>
<rect x="656" y="76" width="108" height="16" fill="#3A1A6E"/>
<rect x="200" y="72" width="400" height="24" fill="#F0F0F4"/>
<rect x="120" y="72" width="32" height="24" fill="#2BB24A"/>
<rect x="72" y="72" width="32" height="24" fill="#EEEEEE"/>
<rect x="608" y="108" width="132" height="24" fill="#3A1A6E"/>
<rect x="536" y="116" width="56" height="8" fill="#3A1A6E"/>
<rect x="464" y="116" width="56" height="8" fill="#555"/>
<rect x="392" y="116" width="56" height="8" fill="#555"/>
<rect x="72" y="108" width="160" height="24" fill="#EEF6EE"/>
<rect x="72" y="148" width="700" height="212" fill="#1A2A6E"/>
<rect x="400" y="148" width="372" height="212" fill="#D8D4CE"/>
<rect x="92" y="188" width="240" height="16" fill="#FFFFFF"/>
<rect x="92" y="216" width="200" height="16" fill="#FFFFFF"/>
<rect x="92" y="252" width="184" height="10" fill="#F5C400"/>
<circle cx="92" cy="340" r="12" fill="#2BB24A"/>
<circle cx="748" cy="340" r="12" fill="#3A1A6E"/>

<!-- island grass under the CRT -->
<rect x="120" y="400" width="604" height="12" fill="#5B8C32"/>
<rect x="136" y="396" width="40" height="8" fill="#7CB342"/>
<rect x="220" y="396" width="24" height="8" fill="#7CB342"/>
<rect x="480" y="396" width="32" height="8" fill="#7CB342"/>
<rect x="640" y="396" width="20" height="8" fill="#7CB342"/>
<rect x="160" y="412" width="524" height="10" fill="#8B6230"/>
<rect x="200" y="422" width="80" height="6" fill="#6B4A20"/>
<rect x="520" y="422" width="64" height="6" fill="#6B4A20"/>
<!-- yellow dotted links like hero -->
<path d="M52 88 L20 72" stroke="#FFB818" stroke-width="2" stroke-dasharray="4 6" fill="none"/>
<rect x="8" y="56" width="28" height="20" fill="#2A2A32"/>
<rect x="14" y="62" width="16" height="4" fill="#FFB818"/>
<path d="M792 100 L828 80" stroke="#FFB818" stroke-width="2" stroke-dasharray="4 6" fill="none"/>
<rect x="812" y="64" width="24" height="24" rx="12" fill="#2A2A32"/>
<polygon points="820,70 828,76 820,82" fill="#FFB818"/>
</svg>
